<?xml version="1.0" standalone="no"?>
 <!DOCTYPE svg PUBLIC "-//W3C//DTD SVG 1.1//EN" 
 "http://www.w3.org/Graphics/SVG/1.1/DTD/svg11.dtd"> 
<svg
  xmlns:svg="http://www.w3.org/2000/svg"
  xmlns="http://www.w3.org/2000/svg"
  xmlns:xlink="http://www.w3.org/1999/xlink"
  version="1.1"
  width="13.012420cm" height="8.785860cm" viewBox="0 0 51230 34590">
<title>SVG Picture created as chococorne-brd.svg date 2021/06/27 02:15:55 </title>
  <desc>Picture generated by PCBNEW </desc>
<g style="fill:#000000; fill-opacity:1;stroke:#000000; stroke-opacity:1;
stroke-linecap:round; stroke-linejoin:round;"
 transform="translate(0 0) scale(1 1)">
</g>
<g style="fill:#000000; fill-opacity:0.0; 
stroke:#000000; stroke-width:-0.000393701; stroke-opacity:1; 
stroke-linecap:round; stroke-linejoin:round;">
</g>
<g style="fill:#000000; fill-opacity:0.0; 
stroke:#000000; stroke-width:19.685; stroke-opacity:1; 
stroke-linecap:round; stroke-linejoin:round;">
<circle cx="12919.3" cy="17484.6" r="964.567" /> 
<circle cx="7375.98" cy="17488.6" r="964.567" /> 
<circle cx="42915.4" cy="24539.8" r="964.567" /> 
<circle cx="23498" cy="22748.4" r="964.567" /> 
<circle cx="7375.98" cy="10740.5" r="964.567" /> 
<circle cx="34206.7" cy="8130.31" r="964.567" /> 
<circle cx="13009.8" cy="10752.4" r="964.567" /> 
<circle cx="50214.6" cy="23331.1" r="964.567" /> 
<circle cx="44505.9" cy="19984.6" r="964.567" /> 
<g >
</g>
<g >
</g>
<g >
</g>
<g >
</g>
<g >
</g>
<g >
</g>
<g >
</g>
<g >
</g>
<g >
</g>
<g >
</g>
<g >
</g>
<g >
</g>
<g >
</g>
<g >
</g>
<g >
</g>
<g >
</g>
<g >
</g>
<g >
</g>
<g >
</g>
<g >
</g>
<g >
</g>
<g >
</g>
<g >
</g>
<g >
</g>
<g >
</g>
<g >
</g>
<g >
</g>
<g >
</g>
<g >
</g>
<g >
</g>
<g >
</g>
<g >
</g>
<g >
</g>
<g >
</g>
<g >
</g>
<g >
</g>
<g >
</g>
<g >
</g>
<g >
</g>
<g >
</g>
<g >
</g>
<g >
</g>
<g >
</g>
<g >
</g>
<g >
</g>
<g >
</g>
<g >
</g>
<g >
</g>
<g >
</g>
<g >
</g>
<g >
</g>
<g >
</g>
<g >
</g>
<g >
</g>
<g >
</g>
<g >
</g>
<g >
</g>
<g >
</g>
<g >
</g>
<g >
</g>
<g >
</g>
<g >
</g>
<g >
</g>
<g >
</g>
</g>
<g style="fill:#000000; fill-opacity:0.0; 
stroke:#000000; stroke-width:19.685; stroke-opacity:1; 
stroke-linecap:round; stroke-linejoin:round;">
</g>
<g style="fill:#000000; fill-opacity:0.0; 
stroke:#000000; stroke-width:59.0551; stroke-opacity:1; 
stroke-linecap:round; stroke-linejoin:round;">
<path d="M44881 24604
L42165 29309
" />
<path d="M46870 32026
L49586 27321
" />
<path d="M46870 32026
L42165 29309
" />
<path d="M44881 24604
L49586 27321
" />
<path d="M22391 19953
L27824 19953
" />
<path d="M27824 14520
L22391 14520
" />
<path d="M27824 14520
L27824 19953
" />
<path d="M22391 19953
L22391 14520
" />
<path d="M36564 15130
L41998 15130
" />
<path d="M41998 9697
L36564 9697
" />
<path d="M41998 9697
L41998 15130
" />
<path d="M36564 15130
L36564 9697
" />
<path d="M41092 25130
L35844 23724
" />
<path d="M34438 28972
L39686 30378
" />
<path d="M34438 28972
L35844 23724
" />
<path d="M41092 25130
L39686 30378
" />
<path d="M32588 23315
L27155 23315
" />
<path d="M27155 28748
L32588 28748
" />
<path d="M27155 28748
L27155 23315
" />
<path d="M32588 23315
L32588 28748
" />
<path d="M36564 21823
L41998 21823
" />
<path d="M41998 16390
L36564 16390
" />
<path d="M41998 16390
L41998 21823
" />
<path d="M36564 21823
L36564 16390
" />
<path d="M29478 20888
L34911 20888
" />
<path d="M34911 15455
L29478 15455
" />
<path d="M34911 15455
L34911 20888
" />
<path d="M29478 20888
L29478 15455
" />
<path d="M15305 20888
L20738 20888
" />
<path d="M20738 15455
L15305 15455
" />
<path d="M20738 15455
L20738 20888
" />
<path d="M15305 20888
L15305 15455
" />
<path d="M8218 23470
L13651 23470
" />
<path d="M13651 18037
L8218 18037
" />
<path d="M13651 18037
L13651 23470
" />
<path d="M8218 23470
L8218 18037
" />
<path d="M1131 23476
L6564 23476
" />
<path d="M6564 18043
L1131 18043
" />
<path d="M6564 18043
L6564 23476
" />
<path d="M1131 23476
L1131 18043
" />
<path d="M29478 14193
L34911 14193
" />
<path d="M34911 8760
L29478 8760
" />
<path d="M34911 8760
L34911 14193
" />
<path d="M29478 14193
L29478 8760
" />
<path d="M22391 13260
L27824 13260
" />
<path d="M27824 7827
L22391 7827
" />
<path d="M27824 7827
L27824 13260
" />
<path d="M22391 13260
L22391 7827
" />
<path d="M15305 14193
L20738 14193
" />
<path d="M20738 8760
L15305 8760
" />
<path d="M20738 8760
L20738 14193
" />
<path d="M15305 14193
L15305 8760
" />
<path d="M8218 16775
L13651 16775
" />
<path d="M13651 11342
L8218 11342
" />
<path d="M13651 11342
L13651 16775
" />
<path d="M8218 16775
L8218 11342
" />
<path d="M1131 16775
L6564 16775
" />
<path d="M6564 11342
L1131 11342
" />
<path d="M6564 11342
L6564 16775
" />
<path d="M1131 16775
L1131 11342
" />
<path d="M36564 8437
L41998 8437
" />
<path d="M41998 3004
L36564 3004
" />
<path d="M41998 3004
L41998 8437
" />
<path d="M36564 8437
L36564 3004
" />
<path d="M29478 7500
L34911 7500
" />
<path d="M34911 2067
L29478 2067
" />
<path d="M34911 2067
L34911 7500
" />
<path d="M29478 7500
L29478 2067
" />
<path d="M22391 6571
L27824 6571
" />
<path d="M27824 1138
L22391 1138
" />
<path d="M27824 1138
L27824 6571
" />
<path d="M22391 6571
L22391 1138
" />
<path d="M15305 7500
L20738 7500
" />
<path d="M20738 2067
L15305 2067
" />
<path d="M20738 2067
L20738 7500
" />
<path d="M15305 7500
L15305 2067
" />
<path d="M8218 10083
L13651 10083
" />
<path d="M13651 4649
L8218 4649
" />
<path d="M13651 4649
L13651 10083
" />
<path d="M8218 10083
L8218 4649
" />
<path d="M1131 10083
L6564 10083
" />
<path d="M6564 4649
L1131 4649
" />
<path d="M6564 4649
L6564 10083
" />
<path d="M1131 10083
L1131 4649
" />
<g >
</g>
<g >
</g>
<g >
</g>
<g >
</g>
<g >
</g>
<g >
</g>
<g >
</g>
<g >
</g>
<g >
</g>
<g >
</g>
<g >
</g>
<g >
</g>
<g >
</g>
<g >
</g>
<g >
</g>
<g >
</g>
<g >
</g>
<g >
</g>
<g >
</g>
<g >
</g>
<g >
</g>
<g >
</g>
<g >
</g>
<g >
</g>
<g >
</g>
<g >
</g>
<g >
</g>
<g >
</g>
<g >
</g>
<g >
</g>
<g >
</g>
<g >
</g>
<g >
</g>
<g >
</g>
<g >
</g>
<g >
</g>
<g >
</g>
<g >
</g>
<g >
</g>
<g >
</g>
<g >
</g>
<g >
</g>
<g >
</g>
<g >
</g>
<g >
</g>
<g >
</g>
<g >
</g>
<g >
</g>
<g >
</g>
<g >
</g>
<g >
</g>
<g >
</g>
<g >
</g>
<g >
</g>
<g >
</g>
<g >
</g>
<g >
</g>
<g >
</g>
<g >
</g>
<g >
</g>
<g >
</g>
<g >
</g>
<g >
</g>
<g >
</g>
</g>
<g style="fill:#000000; fill-opacity:0.0; 
stroke:#000000; stroke-width:59.0551; stroke-opacity:1; 
stroke-linecap:round; stroke-linejoin:round;">
<path d="M7749 24545
L226 24543
" />
<path d="M7753 3553
L226 3551
" />
<path d="M29.528 24346.8 A196.85 196.85 0.0 0 0 226.378 24543.7" />
<path d="M226.378 3551.57 A196.85 196.85 0.0 0 0 29.528 3748.42" />
<path d="M51175.2 2386.21 A196.85 196.85 0.0 0 0 50978.3 2189.36" />
<path d="M36127.8 1702.76 A196.85 196.85 0.0 0 0 36324.6 1899.61" />
<path d="M36127.8 1112.21 A196.85 196.85 0.0 0 0 35930.9 915.355" />
<path d="M29037.2 718.504 A196.85 196.85 0.0 0 0 29234.1 915.355" />
<path d="M29037.2 226.378 A196.85 196.85 0.0 0 0 28840.4 29.528" />
<path d="M21375.8 29.528 A196.85 196.85 0.0 0 0 21178.9 226.378" />
<path d="M20982.1 915.355 A196.85 196.85 0.0 0 0 21178.9 718.504" />
<path d="M21178 226
L21178 718
" />
<path d="M20982 915
L14277 915
" />
<path d="M14080 1112
L14076 3354
" />
<path d="M36127 1702
L36127 1112
" />
<path d="M35930 915
L29234 915
" />
<path d="M29037 718
L29037 226
" />
<path d="M28840 29
L21375 29
" />
<path d="M14277.4 915.355 A196.85 196.85 0.0 0 0 14080.5 1112.21" />
<path d="M13879.9 3551.57 A196.85 196.85 0.0 0 0 14076.8 3354.72" />
<path d="M42872 1894
L36324 1899
" />
<path d="M43064.9 2051.58 A196.85 196.85 0.0 0 0 43253.9 2193.31" />
<path d="M43064.9 2051.58 A196.85 196.85 0.0 0 0 42872 1894.09" />
<path d="M21482 24555
L7749 24545
" />
<path d="M26264 29541
L40029 31340
" />
<path d="M40287 31391
L45624 34472
" />
<path d="M46383 34323
L51206 25984
" />
<path d="M40287.2 31391.7 A1344.25 1344.25 0.0 0 0 40029.6 31340.7" />
<path d="M45624.8 34472.6 A545.971 545.971 0.0 0 0 46383.9 34323.2" />
<path d="M21613 24605
L26155 29484
" />
<path d="M26155.5 29484.6 A206.566 206.566 0.0 0 0 26264.1 29541.7" />
<path d="M21613.3 24605.4 A196.85 196.85 0.0 0 0 21482.3 24555.5" />
<path d="M13879 3551
L7753 3553
" />
<path d="M50978 2189
L43253 2193
" />
<path d="M29 3748
L29 24346
" />
<path d="M51175 2386
L51206 25984
" />
<g >
</g>
<g >
</g>
<g >
</g>
<g >
</g>
<g >
</g>
<g >
</g>
<g >
</g>
<g >
</g>
<g >
</g>
<g >
</g>
<g >
</g>
<g >
</g>
<g >
</g>
<g >
</g>
<g >
</g>
<g >
</g>
<g >
</g>
<g >
</g>
<g >
</g>
<g >
</g>
<g >
</g>
<g >
</g>
<g >
</g>
<g >
</g>
<g >
</g>
<g >
</g>
<g >
</g>
<g >
</g>
<g >
</g>
<g >
</g>
<g >
</g>
<g >
</g>
<g >
</g>
<g >
</g>
<g >
</g>
<g >
</g>
<g >
</g>
<g >
</g>
<g >
</g>
<g >
</g>
<g >
</g>
<g >
</g>
<g >
</g>
<g >
</g>
<g >
</g>
<g >
</g>
<g >
</g>
<g >
</g>
<g >
</g>
<g >
</g>
<g >
</g>
<g >
</g>
<g >
</g>
<g >
</g>
<g >
</g>
<g >
</g>
<g >
</g>
<g >
</g>
<g >
</g>
<g >
</g>
<g >
</g>
<g >
</g>
<g >
</g>
<g >
</g>
</g> 
</svg>
