<?xml version="1.0" encoding="UTF-8" standalone="no"?>
<svg
   version="1.1"
   width="13.012420cm"
   height="8.785860cm"
   viewBox="0 0 51230 34590"
   id="svg2653"
   sodipodi:docname="chococorne-plate.svg"
   inkscape:version="1.1 (c68e22c387, 2021-05-23)"
   xmlns:inkscape="http://www.inkscape.org/namespaces/inkscape"
   xmlns:sodipodi="http://sodipodi.sourceforge.net/DTD/sodipodi-0.dtd"
   xmlns="http://www.w3.org/2000/svg"
   xmlns:svg="http://www.w3.org/2000/svg"
   xmlns:rdf="http://www.w3.org/1999/02/22-rdf-syntax-ns#"
   xmlns:cc="http://creativecommons.org/ns#"
   xmlns:dc="http://purl.org/dc/elements/1.1/">
  <defs
     id="defs2657" />
  <sodipodi:namedview
     id="namedview2655"
     pagecolor="#505050"
     bordercolor="#eeeeee"
     borderopacity="1"
     inkscape:pageshadow="0"
     inkscape:pageopacity="0"
     inkscape:pagecheckerboard="0"
     inkscape:document-units="cm"
     showgrid="false"
     inkscape:zoom="2"
     inkscape:cx="398.25"
     inkscape:cy="116.25"
     inkscape:window-width="1920"
     inkscape:window-height="1017"
     inkscape:window-x="1912"
     inkscape:window-y="357"
     inkscape:window-maximized="1"
     inkscape:current-layer="svg2653" />
  <title
     id="title1997">SVG Picture created as chococorne-brd.svg date 2021/06/27 02:06:32 </title>
  <desc
     id="desc1999">Picture generated by PCBNEW </desc>
  <g
     style="fill:#000000; fill-opacity:1;stroke:#000000; stroke-opacity:1; stroke-linecap:round; stroke-linejoin:round;"
     transform="translate(0 0) scale(1 1)"
     id="g2001" />
  <g
     style="fill:#000000; fill-opacity:0.0;  stroke:#000000; stroke-width:-0.000393701; stroke-opacity:1;  stroke-linecap:round; stroke-linejoin:round;"
     id="g2003" />
  <g
     style="fill:#000000; fill-opacity:0.0;  stroke:#000000; stroke-width:19.685; stroke-opacity:1;  stroke-linecap:round; stroke-linejoin:round;"
     id="g2153" />
  <path
     style="fill:#0000ff;stroke-width:0.5"
     d="m 438.70836,330.59966 c -0.9396,-0.48265 -13.07086,-7.4335 -26.95836,-15.44633 l -25.25,-14.5688 -65.75,-8.55985 c -36.1625,-4.70791 -66.48722,-8.69059 -67.38826,-8.8504 -1.38083,-0.24489 -5.10457,-4.01342 -23.69735,-23.98242 -12.13251,-13.03052 -22.08279,-23.74677 -22.11175,-23.81389 -0.029,-0.0671 -46.51514,-0.23586 -103.30264,-0.375 L 1,234.75 0.8737628,135.30272 C 0.78098165,62.21146 0.8965915,35.675831 1.3099852,35.177722 1.7781229,34.613651 13.008968,34.5 68.281715,34.5 120.86006,34.5 134.77523,34.369832 135.09549,33.875 135.31797,33.53125 135.6125,27.9625 135.75,21.5 L 136,9.75 168.96463,9.6213755 c 29.47519,-0.115009 33.05872,-0.213773 33.85348,-0.933016 0.64533,-0.584015 0.92898,-1.7131375 1.03537,-4.1213757 L 204,1.25 h 37 37 l 0.14686,3.3319223 c 0.10198,2.3136247 0.3928,3.5360992 0.95159,4.0000002 C 279.7451,9.1187575 286.39547,9.299112 312.95159,9.5 L 346,9.75 l 0.14897,3.727659 c 0.0819,2.050212 0.39074,4.018962 0.68623,4.375 0.4297,0.517765 7.11133,0.647341 33.38046,0.647341 25.50545,0 33.02576,0.139636 33.6603,0.625 0.74734,0.571644 0.86376,8.457557 1.36377,92.375 0.30068,50.4625 0.65532,92.1096 0.78809,92.54912 0.13277,0.43952 0.85582,1.0769 1.60679,1.41641 0.75096,0.33951 17.5066,10.40568 37.23476,22.36927 34.27056,20.78242 35.8438,21.80018 35.29579,22.83358 -3.36827,6.35167 -45.30623,78.3516 -46.10081,79.1468 -1.54325,1.54444 -3.35883,1.81037 -5.35599,0.78448 z m 24.8782,-45.63574 c 7.2133,-12.49175 12.95722,-22.86171 12.76427,-23.04435 -0.63701,-0.60299 -45.68915,-26.49885 -45.81168,-26.33245 -0.60522,0.82193 -26.07024,45.23285 -26.16556,45.63267 -0.13877,0.58202 44.82717,26.78887 45.61214,26.58348 0.26715,-0.0699 6.38753,-10.34761 13.60083,-22.83935 z m -75.4541,-17.84331 c 3.64785,-13.67884 6.6291,-25.21229 6.625,-25.6299 -0.01,-0.99675 -50.58444,-14.65875 -51.0682,-13.79533 -0.60727,1.08387 -13.49657,49.88269 -13.31749,50.41993 0.17413,0.5224 48.05448,13.73107 50.12823,13.82879 0.90373,0.0426 1.63848,-2.34707 7.63246,-24.82349 z M 313.25,250 v -26.5 h -26.5 -26.5 v 26.5 26.5 h 26.5 26.5 z M 63.5,199.25 v -26.5 H 37 10.5 l -0.129384,26.62938 -0.129384,26.62939 26.629384,-0.12939 L 63.5,225.75 Z m 68,0 v -26.5 l -26.625,-0.12938 -26.625,-0.12939 v 26.42105 c 0,14.53158 0.15197,26.57302 0.33771,26.75876 0.18574,0.18574 12.16699,0.27949 26.625,0.20833 L 131.5,225.75 Z M 403.75,183.5 V 157 H 377 350.25 v 26.16666 c 0,14.39167 0.15,26.31667 0.33333,26.5 C 350.76666,209.85 362.80416,210 377.33333,210 H 403.75 Z m -204,-9 V 148 H 173 146.25 V 174.5 201 H 173 199.75 Z m 136,0 V 148 H 309 282.25 V 174.5 201 H 309 335.75 Z m -68,-9 V 139 H 241 214.25 V 165.5 192 H 241 267.75 Z M 63.75,135 V 108.5 H 37 10.25 V 135 161.5 H 37 63.75 Z m 68,0 V 108.5 H 105 78.25 V 135 161.5 H 105 131.75 Z M 403.62938,119.12061 403.75877,92.49123 377.12938,92.620615 350.5,92.75 l -0.13002,26 c -0.0715,14.3 -0.0215,26.28324 0.11101,26.62942 0.19038,0.49719 5.78532,0.60224 26.63001,0.5 L 403.5,145.75 Z m -204,-8.99561 0.12938,-26.625 H 173.00438 146.25 v 26.41666 c 0,14.52917 0.15197,26.56864 0.33771,26.75438 0.18574,0.18574 12.16699,0.27949 26.625,0.20833 L 199.5,136.75 Z m 136,-0.004 0.12939,-26.629385 L 309.12938,83.6205 282.5,83.75 l -0.13002,26 c -0.0715,14.3 -0.0215,26.28324 0.11101,26.62942 0.19038,0.49719 5.78532,0.60224 26.63001,0.5 L 335.5,136.75 l 0.12938,-26.62939 z m -68,-9 0.12939,-26.629385 L 241.12938,74.6205 214.5,74.75 l -0.13002,26 c -0.0715,14.3 -0.0215,26.28324 0.11101,26.62942 0.19038,0.49719 5.78532,0.60224 26.63001,0.5 L 267.5,127.75 267.62938,101.12061 Z M 63.5,70.75 V 44.25 L 36.875,44.120618 10.25,43.991236 v 26.421049 c 0,14.531575 0.151969,26.573015 0.337709,26.758755 0.18574,0.18574 12.16699,0.27949 26.625,0.208335 L 63.5,97.25 Z m 68,0 V 44.25 L 104.875,44.120618 78.25,43.991236 v 26.421049 c 0,14.531575 0.15197,26.573015 0.33771,26.758755 0.18574,0.18574 12.16699,0.27949 26.625,0.208335 L 131.5,97.25 Z M 403.75,55 V 28.5 H 377 350.25 v 26.166665 c 0,14.39167 0.15,26.31667 0.33333,26.5 C 350.76666,81.35 362.80416,81.5 377.33333,81.5 H 403.75 Z m -204,-9 V 19.5 H 173 146.25 V 46 72.5 H 173 199.75 Z m 136,0 V 19.5 H 309 282.25 V 46 72.5 H 309 335.75 Z m -68,-9 V 10.5 H 241 214.25 V 37 63.5 H 241 267.75 Z"
     id="path4720"
     transform="scale(104.16667)" />
  <metadata
     id="metadata5079">
    <rdf:RDF>
      <cc:Work
         rdf:about="">
        <dc:title>SVG Picture created as chococorne-brd.svg date 2021/06/27 02:06:32 </dc:title>
      </cc:Work>
    </rdf:RDF>
  </metadata>
</svg>
